<svg xmlns="http://www.w3.org/2000/svg" xmlns:xlink="http://www.w3.org/1999/xlink" viewBox="0 0 422.49 422.49"><defs><style>.cls-1{fill:url(#linear-gradient);}.cls-2{fill:url(#linear-gradient-2);}.cls-3{fill:url(#linear-gradient-3);}</style><linearGradient id="linear-gradient" x1="59.82" y1="228.24" x2="194.07" y2="228.24" gradientUnits="userSpaceOnUse"><stop offset="0" stop-color="#453b92"/><stop offset="1" stop-color="#953b92"/></linearGradient><linearGradient id="linear-gradient-2" x1="127.04" y1="226.59" x2="286.86" y2="226.59" xlink:href="#linear-gradient"/><linearGradient id="linear-gradient-3" x1="261.31" y1="200.82" x2="362.67" y2="200.82" xlink:href="#linear-gradient"/></defs><title>logo</title><g id="Layer_2" data-name="Layer 2"><g id="Layer_1-2" data-name="Layer 1"><rect width="422.49" height="422.49" rx="211.24"/><polygon class="cls-1" points="194.07 302.09 179.65 327.08 164.69 302.4 108.44 209.62 93.11 184.32 75.16 154.71 59.82 129.41 89.39 129.41 104.73 154.71 122.68 184.32 138.02 209.62 179.12 277.42 194.07 302.09"/><path class="cls-2" d="M277.38,129.41a9.46,9.46,0,0,1,8.2,14.19l-6.41,11.11-17.11,29.61-11.87,20.56a9.46,9.46,0,0,1-8.19,4.74H205.24l6.67,11,15,24.67,18,29.68,14.79,24.4-14.79,24.4-14.78-24.4-17.65-29.09-15-24.68-21.81-36-15.34-25.3h72.53L250,154.71H142.38L127,129.41Z"/><polygon class="cls-3" points="362.67 129.41 347.33 154.71 329.38 184.32 314.06 209.62 276.1 272.23 261.31 247.84 261.31 247.83 284.48 209.62 299.81 184.32 317.77 154.71 333.1 129.41 362.67 129.41"/></g></g></svg>